<?xml version="1.0" standalone="no"?>
<!DOCTYPE svg PUBLIC "-//W3C//DTD SVG 20010904//EN"
 "http://www.w3.org/TR/2001/REC-SVG-20010904/DTD/svg10.dtd">
<svg version="1.0" xmlns="http://www.w3.org/2000/svg"
 width="2485.000000pt" height="2485.000000pt" viewBox="0 0 2485.000000 2485.000000"
 preserveAspectRatio="xMidYMid meet">
<metadata>
Created by potrace 1.14, written by Peter Selinger 2001-2017
</metadata>
<g transform="translate(0.000000,2485.000000) scale(0.100000,-0.100000)"
fill="#000000" stroke="none">
<path d="M12128 24845 c-2 -2 -61 -6 -133 -10 -71 -4 -146 -8 -165 -10 -70 -5
-248 -21 -340 -31 -30 -3 -75 -7 -100 -10 -25 -2 -58 -6 -75 -9 -16 -2 -70 -9
-120 -15 -76 -9 -150 -19 -325 -45 -32 -4 -98 -15 -130 -21 -14 -2 -52 -8 -85
-14 -33 -5 -71 -12 -85 -15 -13 -2 -40 -7 -60 -10 -20 -3 -47 -8 -60 -10 -130
-26 -290 -57 -310 -61 -39 -7 -241 -54 -395 -91 -77 -19 -150 -36 -163 -39
-12 -2 -63 -16 -112 -29 -50 -14 -132 -36 -182 -50 -51 -14 -131 -38 -178 -52
-47 -15 -90 -28 -97 -29 -16 -3 -382 -123 -408 -133 -11 -5 -114 -43 -230 -86
-190 -70 -464 -180 -620 -249 -33 -15 -69 -31 -80 -36 -37 -16 -569 -280 -620
-308 -140 -76 -350 -197 -353 -204 -2 -4 -8 -8 -13 -8 -20 0 -387 -239 -582
-379 -82 -58 -159 -113 -171 -121 -22 -15 -206 -159 -216 -170 -3 -3 -39 -32
-80 -65 -41 -33 -88 -71 -105 -86 -274 -241 -287 -253 -459 -424 -164 -164
-255 -261 -376 -401 -226 -262 -378 -458 -545 -704 -528 -776 -919 -1661
-1151 -2600 -36 -146 -64 -268 -79 -345 -2 -11 -15 -76 -29 -145 -13 -69 -27
-143 -30 -165 -4 -23 -9 -52 -11 -65 -8 -36 -53 -336 -60 -395 -3 -27 -8 -70
-10 -94 -2 -24 -7 -60 -9 -80 -3 -20 -8 -65 -11 -101 -4 -36 -8 -81 -10 -100
-2 -19 -6 -73 -10 -120 -4 -47 -8 -106 -10 -131 -5 -55 -16 -271 -20 -384 -5
-110 -5 -780 0 -890 6 -165 19 -394 30 -544 3 -35 1 -69 -3 -75 -5 -6 -17 -31
-26 -56 -10 -25 -24 -58 -32 -75 -70 -152 -174 -523 -190 -679 -3 -28 -7 -52
-9 -56 -8 -13 -19 -195 -19 -325 -1 -132 7 -277 19 -355 64 -425 215 -788 473
-1138 211 -287 346 -612 407 -977 13 -78 13 -273 0 -342 -20 -105 -29 -119
-78 -121 -88 -5 -191 -24 -242 -46 -16 -7 -43 -19 -60 -25 -62 -26 -202 -129
-280 -206 -177 -176 -306 -415 -354 -655 -6 -30 -13 -68 -17 -85 -12 -59 -12
-331 1 -415 51 -335 158 -584 426 -987 258 -388 558 -725 929 -1043 14 -12 35
-30 48 -41 13 -11 71 -56 130 -101 415 -314 887 -550 1275 -638 128 -29 123
-28 257 -46 51 -7 256 -7 325 1 90 9 210 34 300 60 44 13 103 29 130 35 28 7
57 13 65 15 60 15 267 55 316 60 32 4 68 9 79 12 11 2 81 6 155 10 l136 6 3
-209 c2 -115 4 -252 5 -304 2 -92 1 -98 -35 -165 -20 -38 -49 -101 -64 -140
-28 -71 -77 -235 -70 -235 3 0 1 -11 -4 -23 -27 -72 -30 -332 -6 -472 26 -144
99 -338 170 -450 17 -27 39 -62 47 -76 21 -34 128 -165 170 -209 l34 -34 -17
-91 c-10 -49 -20 -108 -23 -130 -4 -22 -15 -94 -26 -160 -10 -66 -22 -149 -25
-185 -4 -36 -9 -74 -11 -84 -2 -11 -6 -49 -9 -85 -3 -36 -8 -82 -10 -101 -4
-32 -12 -154 -20 -285 -4 -65 -4 -504 -1 -575 7 -115 17 -256 21 -280 2 -14 6
-50 10 -80 28 -249 102 -586 175 -796 96 -273 240 -561 375 -747 138 -191 292
-356 398 -429 214 -146 511 -167 742 -51 243 122 380 330 415 628 23 202 103
544 129 553 7 2 31 -4 54 -14 23 -9 60 -25 82 -35 42 -18 507 -176 541 -184
10 -2 69 -18 129 -35 127 -35 101 -29 320 -74 175 -36 198 -40 275 -51 55 -8
89 -13 160 -25 30 -5 75 -12 100 -15 25 -3 72 -10 105 -14 33 -5 89 -12 125
-16 36 -4 79 -8 95 -10 17 -3 59 -7 95 -11 36 -3 79 -8 95 -9 17 -2 73 -6 125
-10 52 -4 111 -8 130 -10 238 -22 929 -22 1265 0 89 6 219 16 268 20 26 3 71
7 100 10 108 10 300 33 332 39 11 2 43 7 70 10 97 13 383 63 515 90 14 3 39 8
55 12 302 61 799 213 1027 312 l47 21 7 -22 c4 -12 9 -26 10 -32 1 -5 12 -44
23 -86 20 -72 49 -204 56 -259 2 -14 6 -38 9 -55 3 -16 8 -52 11 -80 21 -182
49 -269 119 -380 144 -224 380 -348 651 -341 191 5 349 74 498 215 323 308
593 787 727 1291 14 52 14 52 35 149 9 41 18 77 20 80 1 3 6 24 9 46 4 22 11
65 16 95 17 98 23 140 35 245 3 28 7 65 10 84 26 211 26 945 0 1080 -2 9 -6
57 -10 107 -4 49 -9 98 -11 108 -2 11 -6 42 -9 70 -3 28 -10 76 -15 106 -5 30
-11 78 -15 105 -3 28 -10 73 -15 100 -5 28 -12 66 -14 85 -3 19 -12 69 -20
110 l-15 75 38 40 c79 83 165 196 207 270 6 11 23 42 39 69 28 50 84 178 90
206 2 8 10 40 19 71 34 117 45 211 41 374 -3 120 -9 181 -25 245 -11 47 -23
96 -26 110 -3 14 -10 34 -14 45 -5 11 -18 44 -30 72 -11 29 -36 85 -56 125
l-36 72 1 275 c0 152 3 288 6 304 3 15 7 39 10 53 2 15 5 27 7 29 4 3 402 -59
452 -70 12 -3 32 -7 46 -9 14 -2 54 -9 90 -16 36 -7 76 -14 90 -16 14 -3 59
-12 100 -20 41 -9 86 -18 100 -20 14 -2 39 -7 55 -11 17 -4 35 -8 40 -9 6 -1
65 -14 133 -28 67 -14 143 -29 170 -32 26 -3 58 -8 72 -10 70 -10 303 -5 417
11 424 57 916 278 1348 607 48 37 244 195 272 221 20 18 61 55 92 82 113 102
348 344 469 485 234 273 363 452 552 770 18 30 88 177 113 235 40 97 86 250
109 364 31 154 31 424 0 568 -74 344 -262 631 -530 810 -120 80 -212 114 -352
129 -30 3 -64 7 -75 8 -26 3 -51 55 -64 131 -9 55 -7 264 3 325 21 124 25 144
57 260 70 258 181 484 353 725 114 160 140 200 218 345 94 174 177 409 207
585 6 33 13 74 16 90 16 91 22 305 11 430 -19 222 -84 451 -187 663 -56 115
-115 221 -130 232 -28 22 -33 86 -14 200 2 14 7 50 10 80 3 30 8 71 10 90 2
19 7 60 10 90 3 30 8 71 10 90 2 19 7 73 11 120 4 47 8 99 10 115 2 30 14 197
19 285 23 367 23 969 1 1305 -12 176 -17 246 -20 262 -2 10 -7 59 -11 108 -4
50 -9 104 -11 120 -2 17 -6 53 -9 80 -4 28 -8 61 -10 75 -2 14 -7 48 -10 75
-4 28 -8 59 -10 70 -1 11 -6 43 -10 70 -3 28 -8 57 -10 65 -2 8 -7 38 -10 65
-4 28 -8 58 -11 67 -6 19 -9 36 -19 98 -31 187 -124 576 -200 835 -55 187
-144 451 -185 550 -5 11 -30 74 -56 140 -90 231 -292 659 -383 813 -17 29 -31
55 -31 57 0 4 -141 241 -213 359 -20 32 -43 66 -52 76 -8 9 -15 19 -15 23 0
13 -269 389 -352 492 -48 59 -223 271 -228 275 -3 3 -37 41 -75 85 -324 370
-775 782 -1215 1107 -80 59 -151 112 -157 118 -7 6 -106 73 -220 149 -508 339
-996 601 -1658 891 -65 29 -332 134 -440 175 -55 20 -109 41 -120 45 -38 17
-482 168 -510 174 -5 1 -55 16 -110 33 -102 32 -296 89 -350 104 -224 59 -356
93 -385 99 -19 4 -103 24 -186 43 -84 20 -163 38 -175 41 -13 2 -57 12 -96 20
-40 9 -87 18 -105 21 -18 4 -51 10 -73 15 -49 11 -332 62 -417 75 -15 2 -53 8
-85 14 -32 6 -80 13 -108 16 -27 4 -75 10 -105 15 -57 9 -98 15 -185 25 -27 4
-61 8 -75 10 -14 2 -52 7 -85 10 -33 4 -76 8 -95 11 -19 2 -60 6 -90 9 -30 3
-73 7 -95 9 -22 2 -83 7 -135 11 -52 5 -113 10 -135 12 -50 4 -613 12 -617 8z"/>
</g>
</svg>
