<svg xmlns="http://www.w3.org/2000/svg" viewBox="0 0 2019.91923 2485.21826">
  <defs>
    <style>
      .a {
        isolation: isolate;
      }

      .b {
        fill: #fff;
      }

      .c {
        fill: #231f20;
      }

      .d {
        fill: #c9caca;
        mix-blend-mode: darken;
      }

      .e {
        fill: #ed2024;
      }
    </style>
  </defs>
  <g class="a">
    <g>
      <path class="b" d="M2409.34473,3228.459a74.17365,74.17365,0,0,1-73.92578-68.18847,281.37123,281.37123,0,0,0-12.084-57.501c-80.94629,34.07031-188.66113,53.11914-304.63281,53.11914a964.26619,964.26619,0,0,1-163.03418-13.458,522.35751,522.35751,0,0,1-97.61817-23.61132q-24.51781-7.80177-46.39746-17.10547a272.92961,272.92961,0,0,0-12.54052,58.57324l.00586-.07324a74.17332,74.17332,0,0,1-73.94239,68.2334,73.73479,73.73479,0,0,1-51.80859-21.10254c-31.09473-30.35743-54.32422-69.27149-69.03174-115.64844-11.64648-36.72656-18.03613-78.5127-18.99121-124.19824-1.24854-59.73535,6.897-115.625,14.71045-154.57715-30.10889-29.8125-40.21924-60.86133-43.02393-83.625-8.1123-65.80762,35.46241-111.29883,44.27979-119.75a74.16052,74.16052,0,0,1,86.82861-11.56836l182.89063,99.76367c5.29931,1.82422,21.709,7.08106,67.04394,19.47559,56.23828-10.917,118.39893-16.665,180.62891-16.665,61.55566,0,123.126,5.63769,178.9248,16.34668,44.35743-12.15332,60.56054-17.334,65.86035-19.15332l182.88379-99.76563a74.16864,74.16864,0,0,1,86.82325,11.55274c8.834,8.46582,52.40918,53.959,44.30761,119.75976-2.80566,22.76758-12.916,53.81543-43.02441,83.62793,7.81445,38.95508,15.96191,94.84863,14.71484,154.57617-.95312,45.68653-7.34179,87.47364-18.98828,124.19922-14.708,46.37891-37.9375,85.293-69.0459,115.66114A73.74409,73.74409,0,0,1,2409.34473,3228.459Z" transform="translate(-1016.43583 -743.24072)"/>
      <path class="b" d="M2035.63574,2965.18652c-.47607,0-1.40625,0-2.58154-.04394-83.81836-2.71778-163.19141-13.11817-235.92676-30.91309-59.28174-14.50293-114.45752-33.96387-163.99512-57.84179-86.102-41.502-127.60351-82.74805-135.04882-90.59571a73.9761,73.9761,0,0,1-20.35157-49.73828l-2.8164-154.70117q-2.12622-.06153-4.48682-.06348c-40.12256,0-85.34033,14.0625-87.355,14.69629a72.51627,72.51627,0,0,1-7.07617,1.90625,170.57936,170.57936,0,0,1-36.29053,3.85254c-42.11035.00488-95.562-19.50391-146.64453-53.52246-40.80029-27.1709-99.56006-76.64453-147.78857-158.03125-33.43555-56.41016-31.80079-101.96875-24.54151-130.25293,8.34375-32.51074,28.48291-60.53711,55.25391-76.8916a74.38354,74.38354,0,0,1,36.72607-10.85547,22.59484,22.59484,0,0,0,4.60889-.49805c.16992-.27929.38965-.67187.646-1.20215,11.03027-22.78613,1.89648-89.43359-37.52491-142.00146-38.71582-51.61719-55.3833-112.71094-48.19824-176.67285,4.43164-39.44776,16.93457-72.30225,27.11279-93.62256-11.12011-142.08887-.23925-272.62744,32.38135-388.18555,34.19678-121.14258,92.77344-227.84668,174.103-317.14843,64.2998-70.60206,143.4458-130.75342,235.23974-178.78418,73.1377-38.269,154.52784-69.00782,241.90967-91.36329,149.95069-38.36377,267.86328-39.47119,280.81494-39.47119h5.0376l.5293.01123c13.81592.293,139.521,4.1333,296.88916,48.21924,91.64551,25.67334,176.2998,60.09229,251.61328,102.30078,94.583,53.00782,174.79492,118.58448,238.40723,194.90918,76.6914,92.02051,129.35449,200.25781,156.52734,321.70655C2998.25,1524.09229,3001.65918,1651.126,2982.9834,1788.27c40.5459,57.81885,58.291,148.32227-10.63574,240.2168-39.42383,52.56787-48.5586,119.21533-37.52539,142.00048.25781.53125.47656.92579.64648,1.20606a22.3411,22.3411,0,0,0,4.56738.49609,74.35888,74.35888,0,0,1,36.76563,10.85743c26.7666,16.35253,46.90625,44.376,55.25293,76.88281,7.26172,28.28222,8.90234,73.83789-24.52149,130.25683-28.06445,47.33594-72.11816,98.07813-117.85156,135.748-60.20215,49.58789-121.26367,75.80273-176.585,75.80957a170.20642,170.20642,0,0,1-36.42969-3.87988l-.332-.07422c-27.09766-6.06738-76.98926-16.13184-114.98535-20.96777-1.54981,7.79-2.21191,13.06835-2.21191,15.57324v153.49511a73.95891,73.95891,0,0,1-19.67188,50.31055c-12.21,13.23242-129.96777,130.50293-496.15625,168.58789l-.25635.02637C2040.55908,2965.06152,2038.06348,2965.18652,2035.63574,2965.18652Z" transform="translate(-1016.43583 -743.24072)"/>
      <path class="c" d="M2409.34452,3178.45894a24.17275,24.17275,0,0,1-24.0958-22.314c-.0944-1.121-6.36025-75.41441-39.61292-120.10137-75.2138,43.97895-195.14407,69.84476-326.93344,69.84476a913.83558,913.83558,0,0,1-155.16535-12.8385c-31.95466-4.64924-62.3104-11.9653-89.58632-21.64138-32.27326-10.21888-60.61709-22.50278-84.18778-36.48589-34.061,44.59256-40.41533,120.39637-40.48023,121.23418a24.17186,24.17186,0,0,1-40.97583,15.42272c-108.791-106.21266-68.18685-314.95634-52.85853-377.50865-29.099-20.28436-45.48937-44.07335-48.79339-70.88907-5.30414-43.02905,25.70061-74.1341,29.25243-77.53843a24.16265,24.16265,0,0,1,28.29073-3.77013L1748.39758,2742.351c.4897.26551.96761.54871,1.43371.84371,4.03563,1.68741,20.52037,7.499,86.5419,25.37611,55.99735-11.7883,118.886-18.01875,182.32917-18.01875,62.75291,0,125.081,6.11245,180.69486,17.68834,65.048-17.65294,81.30856-23.376,85.297-25.0398.46611-.3009.94991-.5841,1.43371-.84961l184.18769-100.47781a24.17163,24.17163,0,0,1,28.29663,3.77013c3.55183,3.40433,34.56248,34.50938,29.26424,77.53843-3.304,26.81572-19.69436,50.60471-48.7934,70.88907,15.32833,62.55231,55.94425,271.296-52.85262,377.50865A24.15075,24.15075,0,0,1,2409.34452,3178.45894Z" transform="translate(-1016.43583 -743.24072)"/>
      <path class="c" d="M2481.89339,2663.08756,2297.70648,2763.565c-3.29269,3.30479-46.505,15.7058-97.62208,29.52433-53.96288-11.7063-115.72424-18.37265-181.38-18.37265-66.31072,0-128.63879,6.78477-182.97737,18.71461-51.673-13.93567-95.56318-26.53855-98.897-29.86629l-184.2002-100.47745s-66.98249,64.2046,30.70487,120.00648c0,0-75.35628,256.75919,41.85412,371.19648,0,0,7.8771-103.09832,60.61707-150.72343,24.53272,17.441,57.30141,32.72157,96.23017,45.06459,23.3401,8.28438,51.75525,15.6709,85.621,20.6033a892.32921,892.32921,0,0,0,151.04726,12.48446c141.76607,0,265.24287-31.04568,331.25272-77.06606,51.64884,48.10844,59.3894,149.63714,59.3894,149.63714,117.22249-114.43729,41.85534-371.19648,41.85534-371.19648C2548.89528,2727.29216,2481.89339,2663.08756,2481.89339,2663.08756Z" transform="translate(-1016.43583 -743.24072)"/>
      <path class="c" d="M2034.85669,2915.17521c-351.93784-11.36349-494.601-157.57847-500.501-163.79712a24.14825,24.14825,0,0,1-6.63165-16.20153l-3.50463-192.50086c-11.8945-7.47536-30.24364-11.38709-53.79073-11.38709-49.3834,0-102.19473,16.94494-102.71983,17.116a22.34716,22.34716,0,0,1-2.29512.6195,120.45063,120.45063,0,0,1-25.70651,2.71992c-58.37507.0059-174.96591-58.027-251.41873-187.04331-44.94066-75.82151-10.64959-124.0721,13.76481-138.98742a24.23563,24.23563,0,0,1,11.983-3.54c23.48219-.6018,39.489-10.38408,48.935-29.89554,22.23728-45.93777,3.15653-132.86907-42.52754-193.78706-73.4615-97.9408-25.87761-201.55743-10.07728-230.24936-25.11651-284.5888,39.61292-513.906,192.44185-681.71511,264.06843-289.95194,702.46558-293.28547,720.99763-293.28547h4.50763c20.31977.4307,488.38825,14.08931,749.55976,327.45265,143.78416,172.52329,195.07917,401.85224,152.55163,681.7623,32.68626,35.80149,65.66753,111.0448,1.92341,196.02909-45.69,60.92389-64.77072,147.85519-42.52754,193.793,9.44008,19.51736,25.45281,29.29374,48.935,29.89554a24.232,24.232,0,0,1,11.97709,3.54c24.4144,14.91532,58.70548,63.16,13.78251,138.98742-46.044,77.66233-154.475,187.03151-251.42463,187.04331a119.87244,119.87244,0,0,1-25.7124-2.71992c-1.27442-.2832-110.7911-24.9631-160.2689-24.9631-1.42781,0-2.714.0236-3.87043.059-5.959,19.97756-14.10111,51.08261-14.10111,68.27535V2745.891a24.16338,24.16338,0,0,1-6.40746,16.39034c-4.35423,4.72-110.72029,115.97133-464.59335,152.77583-.83191.0826-1.66971.1298-2.50162.1298C2035.3759,2915.187,2035.1163,2915.187,2034.85669,2915.17521Z" transform="translate(-1016.43583 -743.24072)"/>
      <path class="c" d="M2035.63429,2891.01843c-346.062-11.17464-483.75118-156.28054-483.75118-156.28054l-3.70474-203.7401c-50.23383-50.24485-187.92911-5.58248-187.92911-5.58248-89.30282,19.53023-206.5253-97.69225-251.17067-173.03644-44.66349-75.349,5.57524-106.04665,5.57524-106.04665,108.84392-2.79728,100.47261-161.87389,25.12238-262.34651-75.36111-100.4714-4.6424-210.24212-4.6424-210.24212C1044.88,809.95322,2024.47657,817.405,2024.47657,817.405h3.83524s1032.63859,22.32027,876.3219,993.55033c0,0,83.73353,72.559,8.39054,173.0304-75.35506,100.47262-83.73362,259.54923,25.1103,262.34651,0,0,50.23269,30.69762,5.59336,106.04665-44.66349,75.34419-161.87389,192.56667-251.17671,173.03644,0,0-160.13873-36.28494-188.03423-22.3251,0,0-19.54111,58.61124-19.54111,89.30281v153.49534S2384.50929,2854.73228,2035.63429,2891.01843Z" transform="translate(-1016.43583 -743.24072)"/>
      <path class="b" d="M2835.87482,2250.043c-67.28343-20.47877-58.198-120.93326-58.198-120.93326-69.12492,83.72154-49.11136,210.23608-49.11136,210.23608-41.82029-130.24344,36.3671-301.40335,100.02916-385.13093,63.67294-83.73363-20.01356-223.27638-118.23748-320.01888-98.21174-96.74371-90.93164-204.66689-90.93164-204.66689,49.11265,133.96026,207.36388,240.0202,207.36388,240.0202,14.83224-689.13824-669.33734-783.31425-798.42434-783.31425H2018.058c-129.08715,0-813.26882,94.176-798.41845,783.31425,0,0,158.25132-106.05994,207.35664-240.0202,0,0,7.27535,107.92318-90.93044,204.66689-98.21908,96.7425-181.90437,236.28525-118.23144,320.01888,63.656,83.72758,141.85429,254.88749,100.02916,385.13093,0,0,20.0184-126.51454-49.10652-210.23608,0,0,9.07456,100.45449-58.20283,120.93326-67.29062,20.47265-32.71069,93.03173,23.647,146.98727,56.39275,53.9628,100.04124,96.74976,229.16335,33.50095,129.14629-63.27177,281.8985-20.48482,307.36888,158.1329,0,0-61.84352-81.85709-138.22567-104.1834v212.0957s61.968,60.69924,339.67115,101.63382a202.82063,202.82063,0,0,0,41.46505,5.34565c2.71995.29484,5.32873.64888,8.08372.94371l.35412-.84946c.89046-.023,1.73387-.08216,2.61354-.10633v.95579c320.13-33.48886,389.21992-122.79168,389.21992-122.79168v-197.2272c-76.38215,22.32631-138.20271,104.1834-138.20271,104.1834,25.46434-178.61772,178.21655-221.40467,307.35679-158.1329,129.11728,63.24881,172.76578,20.46185,229.15853-33.50095C2868.62055,2343.07473,2903.17163,2270.51565,2835.87482,2250.043Zm-1298.86625,7.45177c-241.86049-96.76062-171.178-346.06684-171.178-346.06684-40.92251-44.65745-111.634-3.72407-111.634-3.72407,55.826-89.309,215.84152-85.59687,327.47548,40.92975,111.63523,126.51454,200.93194,223.26309,279.08429,193.50908,78.14027-29.7659,37.20575-122.80366,37.20575-122.80366-33.4949-93.02569-70.70065-148.85777-70.70065-148.85777s137.67226,156.29745,115.346,267.92054C1920.27022,2250.043,1778.88718,2354.24332,1537.00857,2257.49477Zm607.73548,234.4208c-29.08813,122.81464-120.04877,145.14095-120.04877,145.14095v1.334c-.74312-.05928-1.50437-.08345-2.24749-.15346l-.72017-1.18053s-36.90481-9.19177-71.22016-47.53086c-.20051-.41325-.45426-.86154-.45426-.86154l-.0762.22475c-19.36348-21.79465-37.83159-52.79443-48.29815-96.9733-29.09295-122.79771,116.37915-238.1497,116.37915-238.1497h10.30705S2173.843,2369.11786,2144.744,2491.91557Zm365.88465-234.4208c-241.86644,96.74855-383.25439-7.45177-405.5807-119.093-22.32631-111.62309,115.33386-267.92054,115.33386-267.92054s-37.2056,55.83208-70.68245,148.85777c0,0-40.93459,93.03776,37.19359,122.80366,78.15235,29.754,167.4443-66.99454,279.09638-193.50908,111.62913-126.52662,271.64944-130.23871,327.45252-40.92975,0,0-70.69454-40.93338-111.62912,3.72407C2681.81278,1911.42793,2752.49523,2160.73415,2510.6287,2257.49477Z" transform="translate(-1016.43583 -743.24072)"/>
      <path class="d" d="M1265.35913,1881.82281s11.16859,533.66932,541.42959,399.71509c-379.55564-223.27637-413.04456-338.4917-413.04456-338.4917l50.23268-61.40239-106.05268-5.57533" transform="translate(-1016.43583 -743.24072)"/>
      <path class="d" d="M2781.72473,1879.18867s-11.16376,536.30346-541.43564,402.34923c379.56175-223.27637,413.05061-338.4917,413.05061-338.4917l-50.2339-61.40239,106.05994-5.57533" transform="translate(-1016.43583 -743.24072)"/>
      <path class="b" d="M1661.46892,2802.62306s-64.18647,67.00189-36.2801,181.415c0,0,30.70366-72.559,120.00776-147.902C1745.19658,2836.13609,1720.08016,2794.26867,1661.46892,2802.62306Z" transform="translate(-1016.43583 -743.24072)"/>
      <path class="b" d="M2374.4898,2802.62306s64.20347,67.00189,36.28493,181.415c0,0-30.69158-72.559-120.00648-147.902C2290.76825,2836.13609,2315.87864,2794.26867,2374.4898,2802.62306Z" transform="translate(-1016.43583 -743.24072)"/>
      <path class="b" d="M1799.842,2882.31s-62.85248,6.12382-84.948,55.56618c0,0,15.80616,34.2091,71.83286,36.53272C1786.72687,2974.40889,1814.06163,2914.41773,1799.842,2882.31Z" transform="translate(-1016.43583 -743.24072)"/>
      <path class="b" d="M2253.13724,2874.27339s52.94659,17.68874,67.83926,69.76292c0,0-20.46186,31.63528-76.27582,26.05393C2244.70068,2970.09024,2225.22974,2916.12873,2253.13724,2874.27339Z" transform="translate(-1016.43583 -743.24072)"/>
      <path class="b" d="M2165.68679,2908.695s45.50087,16.7439,60.39232,68.841c0,0-20.46056,31.62441-76.26373,26.04313C2149.81538,3003.57917,2137.77921,2945.91157,2165.68679,2908.695Z" transform="translate(-1016.43583 -743.24072)"/>
      <path class="b" d="M1883.15755,2915.50281s-59.39665,21.49981-68.50021,74.908c0,0,23.77147,29.19324,78.65381,17.55824C1893.31115,3007.969,1904.899,2943.04427,1883.15755,2915.50281Z" transform="translate(-1016.43583 -743.24072)"/>
      <path class="b" d="M1977.168,2939.64645s-34.75035,33.24115-44.04362,80.67655c0,0,39.08222,26.05521,83.29138,3.67083C2016.41578,3023.99383,2006.60414,2958.80935,1977.168,2939.64645Z" transform="translate(-1016.43583 -743.24072)"/>
      <path class="b" d="M2078.2593,2929.16781s-48.9881,37.53556-27.91241,87.43837c0,0,46.12074,20.07277,80.05788-13.86438C2130.40477,3002.7418,2124.75221,2944.03631,2078.2593,2929.16781Z" transform="translate(-1016.43583 -743.24072)"/>
      <path class="d" d="M1834.69026,910.42583c-16.733-5.58248-452.10865,206.5253-463.27724,513.516,0,0,106.05872-161.86785,234.43167-189.78147,0,0,109.78884,141.4072-83.72758,323.74778-124.01934,116.85636-128.37295,184.2002-128.37295,184.2002s131.29953-22.144,223.26919,100.47141c184.20014,245.59543,303.28587,167.44912,210.2481,27.90154,0,0,158.145,184.199,63.24881,301.41544-146.71056,181.23737-362.80583-223.26309-452.11469-256.758s-200.944-66.97772-240.01416,22.33114c-39.07618-66.98859,11.16859-189.78026,106.05389-301.41543,94.89014-111.64121-94.8853,61.39644-94.8853,61.39644s-33.49973-106.05993-33.49973-122.79772c0-16.745,33.49973-290.25288,66.98255-329.32906,33.4949-39.06409,346.07409-357.2306,653.0708-401.876" transform="translate(-1016.43583 -743.24072)"/>
      <path class="d" d="M2233.44511,910.42583c16.73175-5.58248,452.12074,206.5253,463.28338,513.516,0,0-106.04794-161.86785-234.433-189.78147,0,0-109.77555,141.4072,83.72154,323.74778,124.01943,116.85636,128.385,184.2002,128.385,184.2002s-131.29952-22.144-223.26912,100.47141c-184.199,245.59543-323.78283,167.44912-230.75111,27.90154,0,0-153.83752,178.21963-58.94127,295.43608,146.72257,181.23737,379.00728-217.28373,468.2981-250.77863,89.32689-33.4949,200.956-66.97772,240.02615,22.33114,39.07014-66.98859-11.15046-189.78026-106.04785-301.41543-94.89617-111.64121,76.89739,61.39644,76.89739,61.39644s51.47687-106.05993,51.47687-122.79772c0-16.745-33.47687-290.25288-66.97772-329.32906-33.48895-39.06409-346.06211-357.2306-653.06486-401.876" transform="translate(-1016.43583 -743.24072)"/>
      <path class="e" d="M1455.1406,1965.37139s66.97651,22.33235,145.12282,106.0539c78.14631,83.72758,117.22853,106.05268,173.0304,111.634C1773.29382,2183.05925,1544.44342,2328.18327,1455.1406,1965.37139Z" transform="translate(-1016.43583 -743.24072)"/>
      <path class="e" d="M2604.98234,1965.37139s-66.97651,22.33235-145.12886,106.0539c-78.15235,83.72758-117.2104,106.05268-173.03644,111.634C2286.817,2183.05925,2515.66744,2328.18327,2604.98234,1965.37139Z" transform="translate(-1016.43583 -743.24072)"/>
      <polyline class="c" points="570.547 513.252 605.28 415.577 652.269 476.973 658.417 527.212 566.452 594.188"/>
      <polygon class="c" points="505.038 646.227 379.255 524.598 522.349 560.452 680.842 329.205 615.074 607.876 728.244 770.943 561.844 689.227 448.321 876.388 505.038 646.227"/>
      <polygon class="c" points="500.579 616.367 468.854 379.292 575.238 544.989 806.702 478.725 602.626 652.912 641.123 889.191 521.116 695.398 360.594 756.576 500.579 616.367"/>
      <polyline class="c" points="618.184 478.713 681.632 468.517 649.909 583.232 612.591 578.134"/>
      <polyline class="c" points="648.032 550.092 718.974 618.916 629.37 667.349 565.921 667.349"/>
      <path class="c" d="M1569.29393,1255.94409l-29.87233-135.96126,47.30128-95.162-22.40848,95.162s54.747,197.139,57.24227,207.33368" transform="translate(-1016.43583 -743.24072)"/>
      <polygon class="c" points="1320.626 170.896 1302.016 289.988 1182.931 327.193 1041.53 289.988 1004.318 494.648 1060.139 330.922 1168.062 345.803 1160.604 446.274 1212.714 349.52 1316.885 312.308 1320.626 170.896"/>
      <path class="c" d="M2774.96292,1362.07411c0,86.32308-40.08513,156.29745-89.51549,156.29745s-89.49252-69.97437-89.49252-156.29745c0-86.30616,40.06217-156.27449,89.49252-156.27449S2774.96292,1275.768,2774.96292,1362.07411Z" transform="translate(-1016.43583 -743.24072)"/>
      <path class="b" d="M2046.80288,2730.07616a22.321,22.321,0,0,1-22.32631,22.3263h0a22.31867,22.31867,0,0,1-22.31906-22.3263V2544.02479a22.31172,22.31172,0,0,1,22.31906-22.3263h0a22.314,22.314,0,0,1,22.32631,22.3263Z" transform="translate(-1016.43583 -743.24072)"/>
      <path class="b" d="M1455.1406,1965.37139s31.80082,187.88682,153.11109,234.27943c0,0-96.3353-49.95607-112.38917-212.30112C1460.17813,1967.71918,1455.1406,1965.37139,1455.1406,1965.37139Z" transform="translate(-1016.43583 -743.24072)"/>
      <path class="b" d="M2610.8947,1961.808s-31.802,187.88672-153.11834,234.27338c0,0,96.34738-49.956,112.39642-212.30242C2605.856,1964.14977,2610.8947,1961.808,2610.8947,1961.808Z" transform="translate(-1016.43583 -743.24072)"/>
      <path class="c" d="M1563.65351,2028.37845s-7.13888,78.49923,21.4116,103.48024c28.54431,24.96893,92.77187,7.134,92.77187,7.134" transform="translate(-1016.43583 -743.24072)"/>
      <path class="c" d="M2501.29557,2028.37845s7.12681,78.49923-21.41765,103.48024c-28.54437,24.96893-92.76106,7.134-92.76106,7.134" transform="translate(-1016.43583 -743.24072)"/>
    </g>
  </g>
</svg>
